<svg xmlns="http://www.w3.org/2000/svg" xmlns:xlink="http://www.w3.org/1999/xlink" width="300" zoomAndPan="magnify" viewBox="0 0 224.87999 225" height="300" preserveAspectRatio="xMidYMid meet" version="1.0"><defs><clipPath id="351093229b"><path d="M 138 11.507812 L 214 11.507812 L 214 87 L 138 87 Z M 138 11.507812 " clip-rule="nonzero"/></clipPath></defs><path fill="#000000" d="M 30.152344 26.46875 C 26.019531 26.46875 22.671875 29.820312 22.671875 33.949219 C 22.671875 38.082031 26.019531 41.433594 30.152344 41.433594 Z M 46.773438 33.949219 L 54.109375 32.476562 C 53.40625 28.984375 50.339844 26.46875 46.773438 26.46875 Z M 42.765625 51.960938 C 43.582031 56.011719 47.523438 58.636719 51.574219 57.820312 C 55.625 57.007812 58.25 53.0625 57.433594 49.011719 Z M 63.398438 109.152344 C 59.265625 109.152344 55.917969 112.5 55.917969 116.632812 C 55.917969 120.765625 59.265625 124.113281 63.398438 124.113281 Z M 146.519531 116.632812 L 146.519531 124.113281 C 149.347656 124.113281 151.933594 122.519531 153.203125 119.992188 Z M 179.765625 50.488281 L 186.453125 53.847656 C 187.617188 51.527344 187.496094 48.769531 186.136719 46.5625 C 184.773438 44.351562 182.363281 43.007812 179.765625 43.007812 Z M 50.101562 43.007812 C 45.96875 43.007812 42.617188 46.355469 42.617188 50.488281 C 42.617188 54.617188 45.96875 57.96875 50.101562 57.96875 Z M 56.066406 118.105469 C 56.878906 122.15625 60.824219 124.78125 64.875 123.96875 C 68.925781 123.152344 71.546875 119.210938 70.734375 115.15625 Z M 57.433594 49.011719 C 56.621094 44.960938 52.675781 42.339844 48.625 43.152344 C 44.574219 43.96875 41.953125 47.910156 42.765625 51.960938 Z M 68.675781 121.9375 C 71.605469 119.023438 71.617188 114.285156 68.703125 111.355469 C 65.789062 108.425781 61.050781 108.414062 58.125 111.328125 Z M 44.339844 135.59375 L 39.0625 130.289062 Z M 146.519531 157.1875 C 150.652344 157.1875 154 153.835938 154 149.707031 C 154 145.574219 150.652344 142.222656 146.519531 142.222656 Z M 146.519531 149.707031 L 139.039062 149.707031 C 139.039062 151.695312 139.832031 153.605469 141.242188 155.007812 Z M 163.144531 166.242188 L 157.867188 171.546875 C 159.269531 172.941406 161.167969 173.722656 163.144531 173.722656 Z M 80.023438 166.242188 L 73.554688 162.488281 C 72.890625 163.628906 72.542969 164.921875 72.542969 166.242188 Z M 80.023438 182.777344 L 72.542969 182.777344 C 72.542969 184.097656 72.890625 185.390625 73.554688 186.535156 Z M 30.152344 41.433594 L 46.773438 41.433594 L 46.773438 26.46875 L 30.152344 26.46875 Z M 39.441406 35.425781 L 42.765625 51.960938 L 57.433594 49.011719 L 54.109375 32.476562 Z M 63.398438 124.113281 L 146.519531 124.113281 L 146.519531 109.152344 L 63.398438 109.152344 Z M 153.203125 119.992188 L 186.453125 53.847656 L 173.082031 47.128906 L 139.835938 113.273438 Z M 179.765625 43.007812 L 50.101562 43.007812 L 50.101562 57.96875 L 179.765625 57.96875 Z M 70.734375 115.15625 L 57.433594 49.011719 L 42.765625 51.960938 L 56.066406 118.105469 Z M 58.125 111.328125 L 39.0625 130.289062 L 49.617188 140.894531 L 68.675781 121.9375 Z M 39.0625 130.289062 C 29.039062 140.261719 36.21875 157.1875 50.214844 157.1875 L 50.214844 142.222656 C 49.914062 142.222656 49.792969 142.148438 49.730469 142.105469 C 49.636719 142.039062 49.523438 141.914062 49.441406 141.726562 C 49.363281 141.539062 49.359375 141.375 49.375 141.277344 C 49.386719 141.222656 49.414062 141.097656 49.617188 140.894531 Z M 50.214844 157.1875 L 146.519531 157.1875 L 146.519531 142.222656 L 50.214844 142.222656 Z M 154 149.707031 C 154 144.742188 158.054688 140.648438 163.144531 140.648438 L 163.144531 125.6875 C 149.867188 125.6875 139.039062 136.402344 139.039062 149.707031 Z M 163.144531 140.648438 C 168.230469 140.648438 172.285156 144.742188 172.285156 149.707031 L 187.25 149.707031 C 187.25 136.402344 176.417969 125.6875 163.144531 125.6875 Z M 172.285156 149.707031 C 172.285156 154.667969 168.230469 158.761719 163.144531 158.761719 L 163.144531 173.722656 C 176.417969 173.722656 187.25 163.007812 187.25 149.707031 Z M 168.417969 160.9375 L 151.796875 144.402344 L 141.242188 155.007812 L 157.867188 171.546875 Z M 86.492188 169.996094 C 88.550781 166.449219 92.773438 164.695312 96.796875 165.765625 L 100.648438 151.308594 C 90.136719 148.507812 79.019531 153.070312 73.554688 162.488281 Z M 96.796875 165.765625 C 100.8125 166.835938 103.5625 170.4375 103.5625 174.511719 L 118.523438 174.511719 C 118.523438 163.613281 111.167969 154.113281 100.648438 151.308594 Z M 103.5625 174.511719 C 103.5625 178.582031 100.8125 182.183594 96.796875 183.253906 L 100.648438 197.710938 C 111.167969 194.90625 118.523438 185.410156 118.523438 174.511719 Z M 96.796875 183.253906 C 92.773438 184.328125 88.550781 182.570312 86.492188 179.023438 L 73.554688 186.535156 C 79.019531 195.949219 90.136719 200.511719 100.648438 197.710938 Z M 87.503906 182.777344 L 87.503906 166.242188 L 72.542969 166.242188 L 72.542969 182.777344 Z M 87.503906 182.777344 " fill-opacity="1" fill-rule="nonzero"/><g clip-path="url(#351093229b)"><path fill="#ff6969" d="M 213.429688 48.914062 C 213.429688 50.136719 213.371094 51.359375 213.25 52.578125 C 213.128906 53.796875 212.953125 55.007812 212.710938 56.210938 C 212.472656 57.410156 212.175781 58.597656 211.820312 59.769531 C 211.464844 60.941406 211.050781 62.09375 210.582031 63.226562 C 210.113281 64.359375 209.59375 65.464844 209.015625 66.542969 C 208.4375 67.625 207.808594 68.675781 207.128906 69.691406 C 206.445312 70.710938 205.71875 71.695312 204.941406 72.640625 C 204.164062 73.589844 203.34375 74.496094 202.476562 75.359375 C 201.609375 76.226562 200.703125 77.050781 199.753906 77.828125 C 198.808594 78.601562 197.824219 79.332031 196.808594 80.011719 C 195.789062 80.695312 194.738281 81.324219 193.660156 81.898438 C 192.578125 82.476562 191.472656 83 190.339844 83.46875 C 189.210938 83.9375 188.058594 84.351562 186.882812 84.707031 C 185.710938 85.0625 184.527344 85.359375 183.324219 85.597656 C 182.121094 85.835938 180.914062 86.015625 179.691406 86.136719 C 178.472656 86.257812 177.25 86.316406 176.027344 86.316406 C 174.800781 86.316406 173.578125 86.257812 172.359375 86.136719 C 171.140625 86.015625 169.929688 85.835938 168.730469 85.597656 C 167.527344 85.359375 166.339844 85.0625 165.167969 84.707031 C 163.996094 84.351562 162.84375 83.9375 161.714844 83.46875 C 160.582031 83 159.476562 82.476562 158.394531 81.898438 C 157.3125 81.324219 156.265625 80.695312 155.246094 80.011719 C 154.226562 79.332031 153.246094 78.601562 152.296875 77.828125 C 151.351562 77.050781 150.445312 76.226562 149.578125 75.359375 C 148.710938 74.496094 147.890625 73.589844 147.113281 72.640625 C 146.335938 71.695312 145.605469 70.710938 144.925781 69.691406 C 144.246094 68.675781 143.617188 67.625 143.039062 66.542969 C 142.460938 65.464844 141.9375 64.359375 141.46875 63.226562 C 141 62.09375 140.589844 60.941406 140.234375 59.769531 C 139.878906 58.597656 139.582031 57.410156 139.339844 56.210938 C 139.101562 55.007812 138.921875 53.796875 138.804688 52.578125 C 138.683594 51.359375 138.621094 50.136719 138.621094 48.914062 C 138.621094 47.6875 138.683594 46.464844 138.804688 45.246094 C 138.921875 44.027344 139.101562 42.816406 139.339844 41.617188 C 139.582031 40.414062 139.878906 39.226562 140.234375 38.054688 C 140.589844 36.882812 141 35.730469 141.46875 34.597656 C 141.9375 33.46875 142.460938 32.359375 143.039062 31.28125 C 143.617188 30.199219 144.246094 29.152344 144.925781 28.132812 C 145.605469 27.113281 146.335938 26.128906 147.113281 25.183594 C 147.890625 24.238281 148.710938 23.328125 149.578125 22.464844 C 150.445312 21.597656 151.351562 20.777344 152.296875 20 C 153.246094 19.222656 154.226562 18.492188 155.246094 17.8125 C 156.265625 17.132812 157.3125 16.503906 158.394531 15.925781 C 159.476562 15.347656 160.582031 14.824219 161.714844 14.355469 C 162.84375 13.886719 163.996094 13.476562 165.167969 13.117188 C 166.339844 12.761719 167.527344 12.464844 168.730469 12.226562 C 169.929688 11.988281 171.140625 11.808594 172.359375 11.6875 C 173.578125 11.570312 174.800781 11.507812 176.027344 11.507812 C 177.25 11.507812 178.472656 11.570312 179.691406 11.6875 C 180.914062 11.808594 182.121094 11.988281 183.324219 12.226562 C 184.527344 12.464844 185.710938 12.761719 186.882812 13.117188 C 188.058594 13.476562 189.210938 13.886719 190.339844 14.355469 C 191.472656 14.824219 192.578125 15.347656 193.660156 15.925781 C 194.738281 16.503906 195.789062 17.132812 196.808594 17.8125 C 197.824219 18.492188 198.808594 19.222656 199.753906 20 C 200.703125 20.777344 201.609375 21.597656 202.476562 22.464844 C 203.34375 23.328125 204.164062 24.238281 204.941406 25.183594 C 205.71875 26.128906 206.445312 27.113281 207.128906 28.132812 C 207.808594 29.152344 208.4375 30.199219 209.015625 31.28125 C 209.59375 32.359375 210.113281 33.46875 210.582031 34.597656 C 211.050781 35.730469 211.464844 36.882812 211.820312 38.054688 C 212.175781 39.226562 212.472656 40.414062 212.710938 41.617188 C 212.953125 42.816406 213.128906 44.027344 213.25 45.246094 C 213.371094 46.464844 213.429688 47.6875 213.429688 48.914062 Z M 213.429688 48.914062 " fill-opacity="1" fill-rule="nonzero"/></g></svg>