<svg xmlns="http://www.w3.org/2000/svg" xmlns:xlink="http://www.w3.org/1999/xlink" width="300" zoomAndPan="magnify" viewBox="0 0 224.87999 225" height="300" preserveAspectRatio="xMidYMid meet" version="1.0"><defs><clipPath id="905f4fe08f"><path d="M 9.324219 46.132812 L 215.464844 46.132812 L 215.464844 178.8125 L 9.324219 178.8125 Z M 9.324219 46.132812 " clip-rule="nonzero"/></clipPath></defs><g clip-path="url(#905f4fe08f)"><path fill="#ff6969" d="M 205.039062 46.132812 L 19.835938 46.132812 C 14.113281 46.132812 9.460938 50.785156 9.460938 56.507812 L 9.460938 168.046875 C 9.460938 173.769531 14.113281 178.421875 19.835938 178.421875 L 205.039062 178.421875 C 210.757812 178.421875 215.414062 173.769531 215.414062 168.046875 L 215.414062 56.507812 C 215.414062 50.785156 210.757812 46.132812 205.039062 46.132812 Z M 112.3125 53.914062 L 201.136719 53.914062 L 112.433594 122.640625 L 23.734375 53.914062 Z M 205.039062 170.640625 C 206.464844 170.640625 207.632812 169.476562 207.632812 168.046875 L 207.632812 59.414062 L 138.054688 113.320312 L 186.285156 150.75 L 186.25 150.785156 C 187.015625 151.554688 187.484375 152.609375 187.484375 153.78125 C 187.484375 156.132812 185.582031 158.035156 183.230469 158.035156 C 182.066406 158.035156 181.003906 157.5625 180.238281 156.800781 L 180.230469 156.808594 L 131.246094 118.59375 L 116.558594 129.976562 C 115.460938 130.945312 114.027344 131.558594 112.433594 131.558594 C 110.84375 131.558594 109.410156 130.949219 108.308594 129.976562 L 93.625 118.597656 L 44.636719 156.808594 L 44.632812 156.800781 C 43.863281 157.5625 42.808594 158.035156 41.636719 158.035156 C 39.289062 158.035156 37.382812 156.132812 37.382812 153.78125 C 37.382812 152.609375 37.859375 151.554688 38.621094 150.785156 L 38.589844 150.75 L 86.816406 113.320312 L 17.238281 59.414062 L 17.238281 168.046875 C 17.238281 169.476562 18.40625 170.640625 19.835938 170.640625 Z M 205.039062 170.640625 " fill-opacity="1" fill-rule="evenodd"/></g></svg>