<svg xmlns="http://www.w3.org/2000/svg" xmlns:xlink="http://www.w3.org/1999/xlink" width="300" zoomAndPan="magnify" viewBox="0 0 224.87999 225" height="300" preserveAspectRatio="xMidYMid meet" version="1.0"><defs><g/><clipPath id="bfea7179b7"><path d="M 77 53 L 155.761719 53 L 155.761719 129 L 77 129 Z M 77 53 " clip-rule="nonzero"/></clipPath></defs><path fill="#ff6969" d="M 99.898438 48.765625 C 101.359375 48.765625 102.546875 47.578125 102.546875 46.117188 L 102.546875 40.992188 C 102.546875 34.363281 107.945312 28.964844 114.597656 28.964844 C 121.246094 28.964844 126.648438 34.363281 126.648438 40.992188 L 126.648438 46.117188 C 126.648438 47.578125 127.835938 48.765625 129.296875 48.765625 C 130.757812 48.765625 131.941406 47.578125 131.941406 46.117188 L 131.941406 41.714844 C 131.941406 32.457031 124.996094 24.324219 115.742188 23.710938 C 105.679688 23.054688 97.25 31.058594 97.25 40.992188 L 97.25 46.117188 C 97.25 47.578125 98.4375 48.765625 99.898438 48.765625 Z M 99.898438 48.765625 " fill-opacity="1" fill-rule="nonzero"/><g clip-path="url(#bfea7179b7)"><path fill="#141e46" d="M 155.578125 117.597656 L 149.753906 60.945312 C 149.289062 56.433594 145.496094 53.023438 140.964844 53.023438 L 88.230469 53.023438 C 83.695312 53.023438 79.90625 56.453125 79.441406 60.945312 L 77.976562 75.050781 C 77.003906 84.515625 86.003906 91.90625 95.089844 89.132812 L 100.027344 87.628906 C 105.636719 85.914062 111.90625 88.753906 114.109375 94.980469 C 114.871094 97.140625 114.765625 99.511719 114.089844 101.714844 L 111.90625 108.828125 C 108.898438 118.65625 116.25 128.589844 126.519531 128.589844 L 145.667969 128.589844 C 151.574219 128.570312 156.191406 123.464844 155.578125 117.597656 Z M 155.578125 117.597656 " fill-opacity="1" fill-rule="nonzero"/></g><path fill="#ff6969" d="M 101.890625 93.6875 L 73.359375 102.390625 C 69.210938 103.664062 68.914062 109.421875 72.917969 111.117188 L 79.714844 113.976562 C 83.316406 115.5 86.195312 118.359375 87.71875 121.980469 L 90.578125 128.78125 C 92.273438 132.785156 98.035156 132.488281 99.304688 128.335938 L 108.011719 99.808594 C 109.175781 96.058594 105.660156 92.542969 101.890625 93.6875 Z M 101.890625 93.6875 " fill-opacity="1" fill-rule="nonzero"/><g fill="#000000" fill-opacity="1"><g transform="translate(9.609902, 170.658241)"><g><path d="M 14.933594 0.515625 C 21.71875 0.515625 26.988281 -3.613281 28.28125 -9.882812 L 22.234375 -9.882812 C 21.164062 -6.933594 18.433594 -5.050781 15.042969 -5.050781 C 10.65625 -5.050781 7.558594 -8.257812 7.558594 -12.90625 C 7.558594 -17.550781 10.691406 -20.757812 15.082031 -20.757812 C 18.363281 -20.757812 21.054688 -18.988281 22.046875 -16.148438 L 28.09375 -16.148438 C 26.621094 -22.34375 21.457031 -26.324219 14.894531 -26.324219 C 7.078125 -26.324219 1.585938 -20.796875 1.585938 -12.90625 C 1.585938 -5.015625 7.078125 0.515625 14.933594 0.515625 Z M 14.933594 0.515625 "/></g></g></g><g fill="#000000" fill-opacity="1"><g transform="translate(39.360455, 170.658241)"><g><path d="M 2.800781 0 L 8.40625 0 L 8.40625 -27.285156 L 2.800781 -27.285156 Z M 2.800781 0 "/></g></g></g><g fill="#000000" fill-opacity="1"><g transform="translate(50.567601, 170.658241)"><g><path d="M 2.800781 0 L 8.40625 0 L 8.40625 -19.355469 L 2.800781 -19.355469 Z M 1.992188 -25.625 C 1.992188 -23.558594 3.464844 -22.121094 5.605469 -22.121094 C 7.742188 -22.121094 9.21875 -23.558594 9.21875 -25.625 C 9.21875 -27.691406 7.742188 -29.128906 5.605469 -29.128906 C 3.464844 -29.128906 1.992188 -27.691406 1.992188 -25.625 Z M 1.992188 -25.625 "/></g></g></g><g fill="#000000" fill-opacity="1"><g transform="translate(61.774748, 170.658241)"><g><path d="M 12.019531 0.515625 C 17.476562 0.515625 21.570312 -2.691406 22.601562 -7.78125 L 17.144531 -7.78125 C 16.371094 -5.679688 14.453125 -4.3125 12.09375 -4.3125 C 9.070312 -4.3125 6.96875 -6.527344 6.96875 -9.695312 C 6.96875 -12.867188 9.070312 -15.082031 12.09375 -15.082031 C 14.304688 -15.082031 16.113281 -13.898438 17.035156 -11.945312 L 22.417969 -11.945312 C 21.53125 -16.738281 17.402344 -19.875 12.019531 -19.875 C 5.824219 -19.875 1.4375 -15.632812 1.4375 -9.695312 C 1.4375 -3.722656 5.789062 0.515625 12.019531 0.515625 Z M 12.019531 0.515625 "/></g></g></g><g fill="#000000" fill-opacity="1"><g transform="translate(85.737401, 170.658241)"><g><path d="M 2.800781 0 L 8.40625 0 L 8.40625 -7.375 L 11.429688 -7.375 L 15.707031 0 L 22.234375 0 L 16.664062 -9.253906 C 17.699219 -10.175781 18.507812 -11.46875 19.136719 -13.199219 L 21.386719 -19.355469 L 15.339844 -19.355469 L 13.972656 -15.152344 C 13.238281 -12.976562 12.203125 -12.386719 9.84375 -12.386719 L 8.40625 -12.386719 L 8.40625 -27.285156 L 2.800781 -27.285156 Z M 2.800781 0 "/></g></g></g><g fill="#000000" fill-opacity="1"><g transform="translate(108.925874, 170.658241)"><g><path d="M 12.09375 0.515625 C 18.214844 0.515625 21.976562 -2.398438 21.976562 -7.261719 C 21.976562 -11.355469 19.285156 -13.789062 12.867188 -15.300781 C 8.921875 -16.222656 7.558594 -17.21875 7.558594 -18.804688 C 7.558594 -20.5 9.070312 -21.53125 11.539062 -21.53125 C 14.230469 -21.53125 15.855469 -20.132812 15.855469 -17.808594 L 21.496094 -17.808594 C 21.496094 -23.007812 17.585938 -26.324219 11.46875 -26.324219 C 5.53125 -26.324219 1.84375 -23.414062 1.84375 -18.695312 C 1.84375 -14.488281 4.683594 -11.984375 10.730469 -10.691406 C 14.378906 -9.917969 16.039062 -8.847656 16.039062 -7.042969 C 16.039062 -5.308594 14.488281 -4.3125 12.058594 -4.3125 C 9.21875 -4.3125 7.375 -5.75 7.375 -8.222656 L 1.621094 -8.222656 C 1.621094 -2.875 5.605469 0.515625 12.09375 0.515625 Z M 12.09375 0.515625 "/></g></g></g><g fill="#000000" fill-opacity="1"><g transform="translate(132.556733, 170.658241)"><g><path d="M 12.128906 0 L 15.671875 0 L 15.671875 -4.867188 L 13.347656 -4.867188 C 11.136719 -4.867188 10.101562 -5.9375 10.101562 -8.183594 L 10.101562 -14.785156 L 15.410156 -14.785156 L 15.410156 -19.355469 L 10.101562 -19.355469 L 10.101562 -24.371094 L 5.75 -24.371094 L 5.421875 -21.863281 C 5.125 -19.875 4.570312 -19.355469 2.46875 -19.355469 L 0.738281 -19.355469 L 0.738281 -14.785156 L 4.5 -14.785156 L 4.5 -7.335938 C 4.5 -2.617188 7.226562 0 12.128906 0 Z M 12.128906 0 "/></g></g></g><g fill="#000000" fill-opacity="1"><g transform="translate(149.77298, 170.658241)"><g><path d="M 12.316406 0.515625 C 18.730469 0.515625 23.15625 -3.648438 23.15625 -9.695312 C 23.15625 -15.707031 18.730469 -19.875 12.316406 -19.875 C 5.863281 -19.875 1.4375 -15.707031 1.4375 -9.695312 C 1.4375 -3.648438 5.863281 0.515625 12.316406 0.515625 Z M 6.96875 -9.695312 C 6.96875 -12.867188 9.179688 -15.082031 12.316406 -15.082031 C 15.449219 -15.082031 17.625 -12.867188 17.625 -9.695312 C 17.625 -6.527344 15.449219 -4.3125 12.316406 -4.3125 C 9.179688 -4.3125 6.96875 -6.527344 6.96875 -9.695312 Z M 6.96875 -9.695312 "/></g></g></g><g fill="#000000" fill-opacity="1"><g transform="translate(174.362346, 170.658241)"><g><path d="M 2.800781 0 L 8.40625 0 L 8.40625 -8.554688 C 8.40625 -12.71875 10.359375 -14.269531 13.570312 -14.269531 L 15.707031 -14.269531 L 15.707031 -19.355469 L 13.605469 -19.355469 C 10.765625 -19.355469 8.960938 -18.582031 7.707031 -16.777344 L 6.96875 -19.355469 L 2.800781 -19.355469 Z M 2.800781 0 "/></g></g></g><g fill="#000000" fill-opacity="1"><g transform="translate(191.320533, 170.658241)"><g><path d="M 11.945312 0.515625 C 16.703125 0.515625 20.464844 -1.917969 22.160156 -6.011719 L 16.480469 -6.011719 C 15.558594 -4.71875 13.898438 -3.980469 12.058594 -3.980469 C 9.511719 -3.980469 7.523438 -5.421875 7.003906 -8.074219 L 22.527344 -8.074219 C 22.859375 -15.152344 18.65625 -19.875 12.019531 -19.875 C 5.75 -19.875 1.4375 -15.707031 1.4375 -9.695312 C 1.4375 -3.648438 5.714844 0.515625 11.945312 0.515625 Z M 7.042969 -11.613281 C 7.667969 -13.972656 9.585938 -15.410156 12.058594 -15.410156 C 14.636719 -15.410156 16.480469 -13.972656 17.109375 -11.613281 Z M 7.042969 -11.613281 "/></g></g></g><g fill="#000000" fill-opacity="1"><g transform="translate(38.009843, 193.52382)"><g><path d="M 4.707031 0 C 5.234375 0 6.429688 -0.0742188 7.25 -0.738281 C 7.730469 -1.144531 8.085938 -1.832031 8.085938 -2.726562 C 8.085938 -3.933594 7.421875 -4.730469 6.21875 -4.929688 C 7.105469 -5.160156 7.609375 -5.960938 7.609375 -7.03125 C 7.609375 -7.695312 7.421875 -8.222656 7.03125 -8.617188 C 6.527344 -9.121094 5.703125 -9.378906 4.546875 -9.378906 L 0.835938 -9.378906 L 0.835938 0 Z M 2.605469 -7.792969 L 4.152344 -7.792969 C 4.804688 -7.792969 5.222656 -7.695312 5.492188 -7.460938 C 5.714844 -7.289062 5.824219 -7.019531 5.824219 -6.648438 C 5.824219 -5.886719 5.332031 -5.480469 4.4375 -5.480469 L 2.605469 -5.480469 Z M 2.605469 -4.042969 L 4.683594 -4.042969 C 5.421875 -4.042969 6.304688 -3.957031 6.304688 -2.863281 C 6.304688 -2.421875 6.183594 -2.136719 5.960938 -1.953125 C 5.578125 -1.621094 4.964844 -1.585938 4.484375 -1.585938 L 2.605469 -1.585938 Z M 2.605469 -4.042969 "/></g></g></g><g fill="#000000" fill-opacity="1"><g transform="translate(48.025516, 193.52382)"><g><path d="M 7.089844 0 L 7.089844 -1.585938 L 2.605469 -1.585938 L 2.605469 -3.910156 L 6.625 -3.910156 L 6.625 -5.480469 L 2.605469 -5.480469 L 2.605469 -7.792969 L 7.089844 -7.792969 L 7.089844 -9.378906 L 0.835938 -9.378906 L 0.835938 0 Z M 7.089844 0 "/></g></g></g><g fill="#000000" fill-opacity="1"><g transform="translate(57.094979, 193.52382)"><g><path d="M 4.558594 0.171875 C 6.773438 0.171875 8.0625 -0.945312 8.0625 -2.714844 C 8.0625 -4.84375 6.207031 -5.261719 4.644531 -5.605469 C 3.503906 -5.863281 2.496094 -6.082031 2.496094 -6.945312 C 2.496094 -7.65625 3.132812 -8.039062 4.019531 -8.039062 C 4.976562 -8.039062 5.777344 -7.582031 6.011719 -6.585938 L 7.816406 -6.585938 C 7.523438 -8.617188 5.863281 -9.550781 4.054688 -9.550781 C 2.164062 -9.550781 0.738281 -8.601562 0.738281 -6.796875 C 0.738281 -4.816406 2.484375 -4.4375 4.019531 -4.09375 C 5.210938 -3.835938 6.28125 -3.601562 6.28125 -2.628906 C 6.28125 -1.734375 5.542969 -1.339844 4.570312 -1.339844 C 3.589844 -1.339844 2.570312 -1.707031 2.261719 -3.046875 L 0.429688 -3.046875 C 0.664062 -0.625 2.753906 0.171875 4.558594 0.171875 Z M 4.558594 0.171875 "/></g></g></g><g fill="#000000" fill-opacity="1"><g transform="translate(67.086074, 193.52382)"><g><path d="M 4.757812 0 L 4.757812 -7.792969 L 7.609375 -7.792969 L 7.609375 -9.378906 L 0.121094 -9.378906 L 0.121094 -7.792969 L 2.988281 -7.792969 L 2.988281 0 Z M 4.757812 0 "/></g></g></g><g fill="#000000" fill-opacity="1"><g transform="translate(76.266131, 193.52382)"><g/></g></g><g fill="#000000" fill-opacity="1"><g transform="translate(80.997772, 193.52382)"><g><path d="M 5.285156 0 L 6.832031 -7.261719 L 8.394531 0 L 11.035156 0 L 13.496094 -9.378906 L 11.640625 -9.378906 L 9.710938 -1.585938 L 7.964844 -9.378906 L 5.714844 -9.378906 L 3.96875 -1.597656 L 2.039062 -9.378906 L 0.183594 -9.378906 L 2.628906 0 Z M 5.285156 0 "/></g></g></g><g fill="#000000" fill-opacity="1"><g transform="translate(96.100868, 193.52382)"><g><path d="M 1.941406 0 L 2.570312 -1.929688 L 6.144531 -1.929688 L 6.785156 0 L 8.640625 0 L 5.332031 -9.378906 L 3.390625 -9.378906 L 0.0859375 0 Z M 4.363281 -7.449219 L 5.652344 -3.476562 L 3.074219 -3.476562 Z M 4.363281 -7.449219 "/></g></g></g><g fill="#000000" fill-opacity="1"><g transform="translate(106.264006, 193.52382)"><g><path d="M 5.234375 0 L 5.234375 -3.675781 L 8.640625 -9.378906 L 6.585938 -9.378906 L 4.300781 -5.394531 L 2.027344 -9.378906 L -0.0351562 -9.378906 L 3.378906 -3.675781 L 3.378906 0 Z M 5.234375 0 "/></g></g></g><g fill="#000000" fill-opacity="1"><g transform="translate(116.304255, 193.52382)"><g/></g></g><g fill="#000000" fill-opacity="1"><g transform="translate(121.035892, 193.52382)"><g><path d="M 4.757812 0 L 4.757812 -7.792969 L 7.609375 -7.792969 L 7.609375 -9.378906 L 0.121094 -9.378906 L 0.121094 -7.792969 L 2.988281 -7.792969 L 2.988281 0 Z M 4.757812 0 "/></g></g></g><g fill="#000000" fill-opacity="1"><g transform="translate(130.215946, 193.52382)"><g><path d="M 5.027344 0.171875 C 8.136719 0.171875 9.585938 -2.101562 9.585938 -4.695312 C 9.585938 -7.289062 8.136719 -9.550781 5.027344 -9.550781 C 1.929688 -9.550781 0.480469 -7.289062 0.480469 -4.695312 C 0.480469 -2.101562 1.929688 0.171875 5.027344 0.171875 Z M 5.027344 -1.414062 C 3.320312 -1.414062 2.324219 -2.742188 2.324219 -4.695312 C 2.324219 -6.636719 3.320312 -7.953125 5.027344 -7.953125 C 6.757812 -7.953125 7.742188 -6.636719 7.742188 -4.695312 C 7.742188 -2.742188 6.757812 -1.414062 5.027344 -1.414062 Z M 5.027344 -1.414062 "/></g></g></g><g fill="#000000" fill-opacity="1"><g transform="translate(141.730807, 193.52382)"><g/></g></g><g fill="#000000" fill-opacity="1"><g transform="translate(146.462445, 193.52382)"><g><path d="M 4.558594 0.171875 C 6.773438 0.171875 8.0625 -0.945312 8.0625 -2.714844 C 8.0625 -4.84375 6.207031 -5.261719 4.644531 -5.605469 C 3.503906 -5.863281 2.496094 -6.082031 2.496094 -6.945312 C 2.496094 -7.65625 3.132812 -8.039062 4.019531 -8.039062 C 4.976562 -8.039062 5.777344 -7.582031 6.011719 -6.585938 L 7.816406 -6.585938 C 7.523438 -8.617188 5.863281 -9.550781 4.054688 -9.550781 C 2.164062 -9.550781 0.738281 -8.601562 0.738281 -6.796875 C 0.738281 -4.816406 2.484375 -4.4375 4.019531 -4.09375 C 5.210938 -3.835938 6.28125 -3.601562 6.28125 -2.628906 C 6.28125 -1.734375 5.542969 -1.339844 4.570312 -1.339844 C 3.589844 -1.339844 2.570312 -1.707031 2.261719 -3.046875 L 0.429688 -3.046875 C 0.664062 -0.625 2.753906 0.171875 4.558594 0.171875 Z M 4.558594 0.171875 "/></g></g></g><g fill="#000000" fill-opacity="1"><g transform="translate(156.453545, 193.52382)"><g><path d="M 2.605469 0 L 2.605469 -3.910156 L 6.625 -3.910156 L 6.625 0 L 8.394531 0 L 8.394531 -9.378906 L 6.625 -9.378906 L 6.625 -5.492188 L 2.605469 -5.492188 L 2.605469 -9.378906 L 0.835938 -9.378906 L 0.835938 0 Z M 2.605469 0 "/></g></g></g><g fill="#000000" fill-opacity="1"><g transform="translate(167.13281, 193.52382)"><g><path d="M 5.027344 0.171875 C 8.136719 0.171875 9.585938 -2.101562 9.585938 -4.695312 C 9.585938 -7.289062 8.136719 -9.550781 5.027344 -9.550781 C 1.929688 -9.550781 0.480469 -7.289062 0.480469 -4.695312 C 0.480469 -2.101562 1.929688 0.171875 5.027344 0.171875 Z M 5.027344 -1.414062 C 3.320312 -1.414062 2.324219 -2.742188 2.324219 -4.695312 C 2.324219 -6.636719 3.320312 -7.953125 5.027344 -7.953125 C 6.757812 -7.953125 7.742188 -6.636719 7.742188 -4.695312 C 7.742188 -2.742188 6.757812 -1.414062 5.027344 -1.414062 Z M 5.027344 -1.414062 "/></g></g></g><g fill="#000000" fill-opacity="1"><g transform="translate(178.647679, 193.52382)"><g><path d="M 2.605469 0 L 2.605469 -3.75 L 4.878906 -3.75 C 6.636719 -3.75 7.851562 -4.804688 7.851562 -6.613281 C 7.851562 -8.554688 6.636719 -9.378906 4.878906 -9.378906 L 0.835938 -9.378906 L 0.835938 0 Z M 2.605469 -7.792969 L 4.632812 -7.792969 C 5.566406 -7.792969 6.097656 -7.347656 6.097656 -6.550781 C 6.097656 -5.726562 5.578125 -5.296875 4.632812 -5.296875 L 2.605469 -5.296875 Z M 2.605469 -7.792969 "/></g></g></g></svg>